<svg width="6" height="26" viewBox="0 0 6 26" fill="none" xmlns="http://www.w3.org/2000/svg">
<path d="M3 21.75C3.69036 21.75 4.25 22.3096 4.25 23C4.25 23.6904 3.69036 24.25 3 24.25C2.30964 24.25 1.75 23.6904 1.75 23C1.75 22.3096 2.30964 21.75 3 21.75ZM3 11.75C3.69036 11.75 4.25 12.3096 4.25 13C4.25 13.6904 3.69036 14.25 3 14.25C2.30964 14.25 1.75 13.6904 1.75 13C1.75 12.3096 2.30964 11.75 3 11.75ZM3 1.75C3.69036 1.75 4.25 2.30964 4.25 3C4.25 3.69036 3.69036 4.25 3 4.25C2.30964 4.25 1.75 3.69036 1.75 3C1.75 2.30964 2.30964 1.75 3 1.75Z" fill="#595959" stroke="#595959" stroke-width="2.5"/>
</svg>
